<?xml version="1.0" encoding="UTF-8"?>
<svg width="1200pt" height="1200pt" version="1.1" viewBox="0 0 1200 1200" xmlns="http://www.w3.org/2000/svg">
 <path d="m600 17.648c-154.45 0-302.57 61.352-411.79 170.57-109.21 109.21-170.57 257.34-170.57 411.79s61.352 302.57 170.57 411.79c109.21 109.21 257.34 170.57 411.79 170.57s302.57-61.352 411.79-170.57c109.21-109.21 170.57-257.34 170.57-411.79s-61.352-302.57-170.57-411.79c-109.21-109.21-257.34-170.57-411.79-170.57zm401.29 390.35-508.59 509.65c-3.332 3.3008-7.8398 5.1445-12.531 5.1172-4.6914 0.027344-9.1992-1.8164-12.527-5.1172l-268.94-269.82c-3.1133-3.4141-4.7578-7.9141-4.5898-12.531 0.019531-4.7148 1.9258-9.2266 5.293-12.527l99.707-99.883c3.3125-3.3398 7.8242-5.2188 12.531-5.2188 4.7031 0 9.2148 1.8789 12.527 5.2188l156.71 156.88 395.65-396.53c3.3125-3.3398 7.8203-5.2188 12.527-5.2188 4.707 0 9.2148 1.8789 12.531 5.2188l99.707 99.883h-0.003906c3.2891 3.3086 5.1328 7.7812 5.1328 12.441 0 4.6641-1.8438 9.1367-5.1328 12.441z"/>
</svg>
