<?xml version="1.0" encoding="UTF-8"?>
<svg width="1200pt" height="1200pt" version="1.1" viewBox="0 0 1200 1200" xmlns="http://www.w3.org/2000/svg">
 <path d="m150 200c-13.262 0-25.98-5.2695-35.355-14.645s-14.645-22.094-14.645-35.355 5.2695-25.98 14.645-35.355 22.094-14.645 35.355-14.645 25.98 5.2695 35.355 14.645 14.645 22.094 14.645 35.355-5.2695 25.98-14.645 35.355-22.094 14.645-35.355 14.645zm0 225c-6.6289 0-12.988 2.6328-17.676 7.3242-4.6914 4.6875-7.3242 11.047-7.3242 17.676s2.6328 12.988 7.3242 17.676c4.6875 4.6914 11.047 7.3242 17.676 7.3242s12.988-2.6328 17.676-7.3242c4.6914-4.6875 7.3242-11.047 7.3242-17.676s-2.6328-12.988-7.3242-17.676c-4.6875-4.6914-11.047-7.3242-17.676-7.3242zm0 300c-6.6289 0-12.988 2.6328-17.676 7.3242-4.6914 4.6875-7.3242 11.047-7.3242 17.676s2.6328 12.988 7.3242 17.676c4.6875 4.6914 11.047 7.3242 17.676 7.3242s12.988-2.6328 17.676-7.3242c4.6914-4.6875 7.3242-11.047 7.3242-17.676s-2.6328-12.988-7.3242-17.676c-4.6875-4.6914-11.047-7.3242-17.676-7.3242zm50 325c0-13.262-5.2695-25.98-14.645-35.355s-22.094-14.645-35.355-14.645-25.98 5.2695-35.355 14.645-14.645 22.094-14.645 35.355 5.2695 25.98 14.645 35.355 22.094 14.645 35.355 14.645 25.98-5.2695 35.355-14.645 14.645-22.094 14.645-35.355zm250-950c-13.262 0-25.98 5.2695-35.355 14.645s-14.645 22.094-14.645 35.355 5.2695 25.98 14.645 35.355 22.094 14.645 35.355 14.645 25.98-5.2695 35.355-14.645 14.645-22.094 14.645-35.355-5.2695-25.98-14.645-35.355-22.094-14.645-35.355-14.645zm25 350c0-6.6289-2.6328-12.988-7.3242-17.676-4.6875-4.6914-11.047-7.3242-17.676-7.3242s-12.988 2.6328-17.676 7.3242c-4.6914 4.6875-7.3242 11.047-7.3242 17.676s2.6328 12.988 7.3242 17.676c4.6875 4.6914 11.047 7.3242 17.676 7.3242s12.988-2.6328 17.676-7.3242c4.6914-4.6875 7.3242-11.047 7.3242-17.676zm25 300c0-13.262-5.2695-25.98-14.645-35.355s-22.094-14.645-35.355-14.645-25.98 5.2695-35.355 14.645-14.645 22.094-14.645 35.355 5.2695 25.98 14.645 35.355 22.094 14.645 35.355 14.645 25.98-5.2695 35.355-14.645 14.645-22.094 14.645-35.355zm-75 300c0 6.6289 2.6328 12.988 7.3242 17.676 4.6875 4.6914 11.047 7.3242 17.676 7.3242s12.988-2.6328 17.676-7.3242c4.6914-4.6875 7.3242-11.047 7.3242-17.676s-2.6328-12.988-7.3242-17.676c-4.6875-4.6914-11.047-7.3242-17.676-7.3242s-12.988 2.6328-17.676 7.3242c-4.6914 4.6875-7.3242 11.047-7.3242 17.676zm350-900c0-6.6289-2.6328-12.988-7.3242-17.676-4.6875-4.6914-11.047-7.3242-17.676-7.3242s-12.988 2.6328-17.676 7.3242c-4.6914 4.6875-7.3242 11.047-7.3242 17.676s2.6328 12.988 7.3242 17.676c4.6875 4.6914 11.047 7.3242 17.676 7.3242s12.988-2.6328 17.676-7.3242c4.6914-4.6875 7.3242-11.047 7.3242-17.676zm-25 250c-13.262 0-25.98 5.2695-35.355 14.645s-14.645 22.094-14.645 35.355 5.2695 25.98 14.645 35.355 22.094 14.645 35.355 14.645 25.98-5.2695 35.355-14.645 14.645-22.094 14.645-35.355-5.2695-25.98-14.645-35.355-22.094-14.645-35.355-14.645zm25 350c0-6.6289-2.6328-12.988-7.3242-17.676-4.6875-4.6914-11.047-7.3242-17.676-7.3242s-12.988 2.6328-17.676 7.3242c-4.6914 4.6875-7.3242 11.047-7.3242 17.676s2.6328 12.988 7.3242 17.676c4.6875 4.6914 11.047 7.3242 17.676 7.3242s12.988-2.6328 17.676-7.3242c4.6914-4.6875 7.3242-11.047 7.3242-17.676zm-75 300c0 13.262 5.2695 25.98 14.645 35.355s22.094 14.645 35.355 14.645 25.98-5.2695 35.355-14.645 14.645-22.094 14.645-35.355-5.2695-25.98-14.645-35.355-22.094-14.645-35.355-14.645-25.98 5.2695-35.355 14.645-14.645 22.094-14.645 35.355zm350-950c-13.262 0-25.98 5.2695-35.355 14.645s-14.645 22.094-14.645 35.355 5.2695 25.98 14.645 35.355 22.094 14.645 35.355 14.645 25.98-5.2695 35.355-14.645 14.645-22.094 14.645-35.355-5.2695-25.98-14.645-35.355-22.094-14.645-35.355-14.645zm25 350c0-6.6289-2.6328-12.988-7.3242-17.676-4.6875-4.6914-11.047-7.3242-17.676-7.3242s-12.988 2.6328-17.676 7.3242c-4.6914 4.6875-7.3242 11.047-7.3242 17.676s2.6328 12.988 7.3242 17.676c4.6875 4.6914 11.047 7.3242 17.676 7.3242s12.988-2.6328 17.676-7.3242c4.6914-4.6875 7.3242-11.047 7.3242-17.676zm-25 250c-13.262 0-25.98 5.2695-35.355 14.645s-14.645 22.094-14.645 35.355 5.2695 25.98 14.645 35.355 22.094 14.645 35.355 14.645 25.98-5.2695 35.355-14.645 14.645-22.094 14.645-35.355-5.2695-25.98-14.645-35.355-22.094-14.645-35.355-14.645zm0 325c-6.6289 0-12.988 2.6328-17.676 7.3242-4.6914 4.6875-7.3242 11.047-7.3242 17.676s2.6328 12.988 7.3242 17.676c4.6875 4.6914 11.047 7.3242 17.676 7.3242s12.988-2.6328 17.676-7.3242c4.6914-4.6875 7.3242-11.047 7.3242-17.676s-2.6328-12.988-7.3242-17.676c-4.6875-4.6914-11.047-7.3242-17.676-7.3242z" fill="#f4ebde"/>
</svg>
